<svg width="165" height="72" viewBox="0 0 165 72" fill="none" xmlns="http://www.w3.org/2000/svg">
<path d="M0 0H165V4.5H0V0Z" fill="white"/>
<path d="M0 67H165V71.5H0V67Z" fill="white"/>
<path d="M45.004 49.594L39.496 37.822L33.934 49.594L22.27 24.7H24.052L33.988 45.814L38.686 35.932L33.502 24.808H35.23L39.55 34.204L43.978 24.7H45.706L40.414 35.986L45.004 45.868L54.778 24.754H56.506L45.004 49.594Z" fill="white"/>
<path d="M60.154 24.7H61.882V28.372C63.538 25.528 66.202 24.106 69.874 24.106C71.638 24.106 73.168 24.61 74.464 25.618C75.76 26.59 76.66 28.066 77.164 30.046C77.632 28.282 78.658 26.86 80.242 25.78C81.862 24.664 83.68 24.106 85.696 24.106C88.324 24.106 90.358 24.88 91.798 26.428C93.238 27.94 93.958 30.1 93.958 32.908V49H92.23V32.908C92.23 30.64 91.636 28.858 90.448 27.562C89.296 26.266 87.766 25.618 85.858 25.618C84.418 25.618 83.086 25.978 81.862 26.698C80.638 27.382 79.666 28.318 78.946 29.506C78.226 30.694 77.866 32.008 77.866 33.448V49H76.138V33.88C76.138 31.288 75.526 29.272 74.302 27.832C73.078 26.356 71.494 25.618 69.55 25.618C68.254 25.618 67.012 25.942 65.824 26.59C64.672 27.238 63.718 28.12 62.962 29.236C62.242 30.316 61.882 31.504 61.882 32.8V49H60.154V24.7Z" fill="white"/>
<path d="M112.207 49.594C109.903 49.594 107.761 49.018 105.781 47.866C103.801 46.714 102.235 45.166 101.083 43.222C99.9314 41.242 99.3554 39.118 99.3554 36.85C99.3554 34.582 99.9314 32.476 101.083 30.532C102.235 28.552 103.801 26.986 105.781 25.834C107.761 24.682 109.903 24.106 112.207 24.106C114.547 24.106 116.761 24.736 118.849 25.996C120.937 27.22 122.395 28.822 123.223 30.802V24.7H124.951V49H123.223V42.952C122.251 44.968 120.739 46.588 118.687 47.812C116.671 49 114.511 49.594 112.207 49.594ZM112.315 48.082C114.295 48.082 116.131 47.578 117.823 46.57C119.515 45.526 120.847 44.158 121.819 42.466C122.827 40.738 123.331 38.866 123.331 36.85C123.331 34.87 122.827 33.016 121.819 31.288C120.811 29.56 119.461 28.192 117.769 27.184C116.077 26.14 114.241 25.618 112.261 25.618C110.281 25.618 108.427 26.14 106.699 27.184C105.007 28.228 103.639 29.614 102.595 31.342C101.587 33.07 101.083 34.924 101.083 36.904C101.083 38.884 101.587 40.738 102.595 42.466C103.639 44.158 105.025 45.526 106.753 46.57C108.481 47.578 110.335 48.082 112.315 48.082Z" fill="white"/>
<path d="M133.873 19.138C133.369 19.138 132.919 18.958 132.523 18.598C132.163 18.238 131.983 17.788 131.983 17.248C131.983 16.744 132.163 16.312 132.523 15.952C132.919 15.592 133.369 15.412 133.873 15.412C134.377 15.412 134.809 15.592 135.169 15.952C135.565 16.312 135.763 16.744 135.763 17.248C135.763 17.788 135.565 18.238 135.169 18.598C134.809 18.958 134.377 19.138 133.873 19.138ZM133.009 24.7H134.737V49H133.009V24.7Z" fill="white"/>
</svg>
